<svg xmlns="http://www.w3.org/2000/svg" xmlns:xlink="http://www.w3.org/1999/xlink" width="500" zoomAndPan="magnify" viewBox="0 0 375 374.999991" height="500" preserveAspectRatio="xMidYMid meet" version="1.0"><defs><clipPath id="609139d9f8"><path d="M 206.367188 75.722656 L 318.867188 75.722656 L 318.867188 300.722656 L 206.367188 300.722656 Z M 206.367188 75.722656 " clip-rule="nonzero"/></clipPath><clipPath id="5ef92088b9"><path d="M 37.5 90.089844 L 230.25 90.089844 L 230.25 282.839844 L 37.5 282.839844 Z M 37.5 90.089844 " clip-rule="nonzero"/></clipPath><clipPath id="7339b2610e"><path d="M 85 103 L 184 103 L 184 192 L 85 192 Z M 85 103 " clip-rule="nonzero"/></clipPath><clipPath id="10d5c6e928"><path d="M 46.378906 168.28125 L 111.078125 103.582031 L 183.203125 175.707031 L 118.503906 240.40625 Z M 46.378906 168.28125 " clip-rule="nonzero"/></clipPath><clipPath id="270da73876"><path d="M -143.078125 200.269531 L 145.421875 -88.230469 L 364.976562 131.324219 L 76.476562 419.824219 Z M -143.078125 200.269531 " clip-rule="nonzero"/></clipPath><clipPath id="74fa70a4cb"><path d="M -143.078125 200.269531 L 145.421875 -88.230469 L 364.976562 131.324219 L 76.476562 419.824219 Z M -143.078125 200.269531 " clip-rule="nonzero"/></clipPath><clipPath id="47d2808bfd"><path d="M 46 142 L 135 142 L 135 241 L 46 241 Z M 46 142 " clip-rule="nonzero"/></clipPath><clipPath id="b1a87234cb"><path d="M 46.378906 168.28125 L 111.078125 103.582031 L 183.203125 175.707031 L 118.503906 240.40625 Z M 46.378906 168.28125 " clip-rule="nonzero"/></clipPath><clipPath id="fe9b17a661"><path d="M -143.078125 200.269531 L 145.421875 -88.230469 L 364.976562 131.324219 L 76.476562 419.824219 Z M -143.078125 200.269531 " clip-rule="nonzero"/></clipPath><clipPath id="699ea79083"><path d="M -143.078125 200.269531 L 145.421875 -88.230469 L 364.976562 131.324219 L 76.476562 419.824219 Z M -143.078125 200.269531 " clip-rule="nonzero"/></clipPath><clipPath id="5722a1a32b"><path d="M 83 103 L 184 103 L 184 194 L 83 194 Z M 83 103 " clip-rule="nonzero"/></clipPath><clipPath id="ff9ea201f3"><path d="M 46.378906 168.28125 L 111.078125 103.582031 L 183.203125 175.707031 L 118.503906 240.40625 Z M 46.378906 168.28125 " clip-rule="nonzero"/></clipPath><clipPath id="72fd5ac46b"><path d="M -143.078125 200.269531 L 145.421875 -88.230469 L 364.976562 131.324219 L 76.476562 419.824219 Z M -143.078125 200.269531 " clip-rule="nonzero"/></clipPath><clipPath id="1e22ec4f48"><path d="M -143.078125 200.269531 L 145.421875 -88.230469 L 364.976562 131.324219 L 76.476562 419.824219 Z M -143.078125 200.269531 " clip-rule="nonzero"/></clipPath><clipPath id="9013ff080d"><path d="M 46 138 L 139 138 L 139 241 L 46 241 Z M 46 138 " clip-rule="nonzero"/></clipPath><clipPath id="1d3efa8ede"><path d="M 46.378906 168.28125 L 111.078125 103.582031 L 183.203125 175.707031 L 118.503906 240.40625 Z M 46.378906 168.28125 " clip-rule="nonzero"/></clipPath><clipPath id="7e9d40f836"><path d="M -143.078125 200.269531 L 145.421875 -88.230469 L 364.976562 131.324219 L 76.476562 419.824219 Z M -143.078125 200.269531 " clip-rule="nonzero"/></clipPath><clipPath id="5633c9329a"><path d="M -143.078125 200.269531 L 145.421875 -88.230469 L 364.976562 131.324219 L 76.476562 419.824219 Z M -143.078125 200.269531 " clip-rule="nonzero"/></clipPath><clipPath id="17f208814d"><path d="M 106 114 L 116 114 L 116 217 L 106 217 Z M 106 114 " clip-rule="nonzero"/></clipPath><clipPath id="50a986af14"><path d="M 46.378906 168.28125 L 111.078125 103.582031 L 183.203125 175.707031 L 118.503906 240.40625 Z M 46.378906 168.28125 " clip-rule="nonzero"/></clipPath><clipPath id="58f2907af8"><path d="M -143.078125 200.269531 L 145.421875 -88.230469 L 364.976562 131.324219 L 76.476562 419.824219 Z M -143.078125 200.269531 " clip-rule="nonzero"/></clipPath><clipPath id="eac6e8f1a1"><path d="M -143.078125 200.269531 L 145.421875 -88.230469 L 364.976562 131.324219 L 76.476562 419.824219 Z M -143.078125 200.269531 " clip-rule="nonzero"/></clipPath><clipPath id="6c315be868"><path d="M 85 146 L 184 146 L 184 235 L 85 235 Z M 85 146 " clip-rule="nonzero"/></clipPath><clipPath id="4cf262a23a"><path d="M 46.378906 211.011719 L 111.078125 146.308594 L 183.203125 218.433594 L 118.503906 283.136719 Z M 46.378906 211.011719 " clip-rule="nonzero"/></clipPath><clipPath id="5abdf89080"><path d="M -143.078125 243 L 145.421875 -45.5 L 364.976562 174.054688 L 76.476562 462.554688 Z M -143.078125 243 " clip-rule="nonzero"/></clipPath><clipPath id="12a2cc901b"><path d="M -143.078125 243 L 145.421875 -45.5 L 364.976562 174.054688 L 76.476562 462.554688 Z M -143.078125 243 " clip-rule="nonzero"/></clipPath><clipPath id="2e92f90ac9"><path d="M 46 185 L 135 185 L 135 284 L 46 284 Z M 46 185 " clip-rule="nonzero"/></clipPath><clipPath id="d18138ae7f"><path d="M 46.378906 211.011719 L 111.078125 146.308594 L 183.203125 218.433594 L 118.503906 283.136719 Z M 46.378906 211.011719 " clip-rule="nonzero"/></clipPath><clipPath id="901c5c8ebc"><path d="M -143.078125 243 L 145.421875 -45.5 L 364.976562 174.054688 L 76.476562 462.554688 Z M -143.078125 243 " clip-rule="nonzero"/></clipPath><clipPath id="c046bac132"><path d="M -143.078125 243 L 145.421875 -45.5 L 364.976562 174.054688 L 76.476562 462.554688 Z M -143.078125 243 " clip-rule="nonzero"/></clipPath><clipPath id="71113c958e"><path d="M 83 146 L 184 146 L 184 237 L 83 237 Z M 83 146 " clip-rule="nonzero"/></clipPath><clipPath id="e89c572985"><path d="M 46.378906 211.011719 L 111.078125 146.308594 L 183.203125 218.433594 L 118.503906 283.136719 Z M 46.378906 211.011719 " clip-rule="nonzero"/></clipPath><clipPath id="dd64ade7bb"><path d="M -143.078125 243 L 145.421875 -45.5 L 364.976562 174.054688 L 76.476562 462.554688 Z M -143.078125 243 " clip-rule="nonzero"/></clipPath><clipPath id="1a2bde1f1d"><path d="M -143.078125 243 L 145.421875 -45.5 L 364.976562 174.054688 L 76.476562 462.554688 Z M -143.078125 243 " clip-rule="nonzero"/></clipPath><clipPath id="9244344b04"><path d="M 46 180 L 139 180 L 139 284 L 46 284 Z M 46 180 " clip-rule="nonzero"/></clipPath><clipPath id="9cf7793fa7"><path d="M 46.378906 211.011719 L 111.078125 146.308594 L 183.203125 218.433594 L 118.503906 283.136719 Z M 46.378906 211.011719 " clip-rule="nonzero"/></clipPath><clipPath id="0dc00ee917"><path d="M -143.078125 243 L 145.421875 -45.5 L 364.976562 174.054688 L 76.476562 462.554688 Z M -143.078125 243 " clip-rule="nonzero"/></clipPath><clipPath id="20352e4b64"><path d="M -143.078125 243 L 145.421875 -45.5 L 364.976562 174.054688 L 76.476562 462.554688 Z M -143.078125 243 " clip-rule="nonzero"/></clipPath><clipPath id="ca719d2ced"><path d="M 106 157 L 116 157 L 116 260 L 106 260 Z M 106 157 " clip-rule="nonzero"/></clipPath><clipPath id="a90f84df7a"><path d="M 46.378906 211.011719 L 111.078125 146.308594 L 183.203125 218.433594 L 118.503906 283.136719 Z M 46.378906 211.011719 " clip-rule="nonzero"/></clipPath><clipPath id="ddd67c20fc"><path d="M -143.078125 243 L 145.421875 -45.5 L 364.976562 174.054688 L 76.476562 462.554688 Z M -143.078125 243 " clip-rule="nonzero"/></clipPath><clipPath id="d14c495d54"><path d="M -143.078125 243 L 145.421875 -45.5 L 364.976562 174.054688 L 76.476562 462.554688 Z M -143.078125 243 " clip-rule="nonzero"/></clipPath><clipPath id="b5babdf71c"><path d="M 134 86 L 220 86 L 220 188 L 134 188 Z M 134 86 " clip-rule="nonzero"/></clipPath><clipPath id="2b3c8c667d"><path d="M 153.03125 50.796875 L 219.746094 113.417969 L 149.933594 187.785156 L 83.222656 125.164062 Z M 153.03125 50.796875 " clip-rule="nonzero"/></clipPath><clipPath id="69354acf90"><path d="M 115.070312 -137.554688 L 412.542969 141.679688 L 200.039062 368.066406 L -97.4375 88.832031 Z M 115.070312 -137.554688 " clip-rule="nonzero"/></clipPath><clipPath id="e9a93b5584"><path d="M 115.070312 -137.554688 L 412.542969 141.679688 L 200.039062 368.066406 L -97.4375 88.832031 Z M 115.070312 -137.554688 " clip-rule="nonzero"/></clipPath><clipPath id="70af7a09b6"><path d="M 83 50 L 178 50 L 178 142 L 83 142 Z M 83 50 " clip-rule="nonzero"/></clipPath><clipPath id="cd1576c861"><path d="M 153.03125 50.796875 L 219.746094 113.417969 L 149.933594 187.785156 L 83.222656 125.164062 Z M 153.03125 50.796875 " clip-rule="nonzero"/></clipPath><clipPath id="82ad49ba39"><path d="M 115.070312 -137.554688 L 412.542969 141.679688 L 200.039062 368.066406 L -97.4375 88.832031 Z M 115.070312 -137.554688 " clip-rule="nonzero"/></clipPath><clipPath id="fd065a0777"><path d="M 115.070312 -137.554688 L 412.542969 141.679688 L 200.039062 368.066406 L -97.4375 88.832031 Z M 115.070312 -137.554688 " clip-rule="nonzero"/></clipPath><clipPath id="ced962c430"><path d="M 132 84 L 220 84 L 220 188 L 132 188 Z M 132 84 " clip-rule="nonzero"/></clipPath><clipPath id="01f13b7948"><path d="M 153.03125 50.796875 L 219.746094 113.417969 L 149.933594 187.785156 L 83.222656 125.164062 Z M 153.03125 50.796875 " clip-rule="nonzero"/></clipPath><clipPath id="1aa0ffcc33"><path d="M 115.070312 -137.554688 L 412.542969 141.679688 L 200.039062 368.066406 L -97.4375 88.832031 Z M 115.070312 -137.554688 " clip-rule="nonzero"/></clipPath><clipPath id="533d5e6b0f"><path d="M 115.070312 -137.554688 L 412.542969 141.679688 L 200.039062 368.066406 L -97.4375 88.832031 Z M 115.070312 -137.554688 " clip-rule="nonzero"/></clipPath><clipPath id="6eeb07aa62"><path d="M 165 187 L 220 187 L 220 188 L 165 188 Z M 165 187 " clip-rule="nonzero"/></clipPath><clipPath id="31e42ca55c"><path d="M 153.03125 50.796875 L 219.746094 113.417969 L 149.933594 187.785156 L 83.222656 125.164062 Z M 153.03125 50.796875 " clip-rule="nonzero"/></clipPath><clipPath id="7eeb7fca96"><path d="M 115.070312 -137.554688 L 412.542969 141.679688 L 200.039062 368.066406 L -97.4375 88.832031 Z M 115.070312 -137.554688 " clip-rule="nonzero"/></clipPath><clipPath id="d7e5215b98"><path d="M 115.070312 -137.554688 L 412.542969 141.679688 L 200.039062 368.066406 L -97.4375 88.832031 Z M 115.070312 -137.554688 " clip-rule="nonzero"/></clipPath><clipPath id="34ad955cb6"><path d="M 83 50 L 183 50 L 183 147 L 83 147 Z M 83 50 " clip-rule="nonzero"/></clipPath><clipPath id="bba3a3bc91"><path d="M 153.03125 50.796875 L 219.746094 113.417969 L 149.933594 187.785156 L 83.222656 125.164062 Z M 153.03125 50.796875 " clip-rule="nonzero"/></clipPath><clipPath id="6268c28605"><path d="M 115.070312 -137.554688 L 412.542969 141.679688 L 200.039062 368.066406 L -97.4375 88.832031 Z M 115.070312 -137.554688 " clip-rule="nonzero"/></clipPath><clipPath id="d872a84836"><path d="M 115.070312 -137.554688 L 412.542969 141.679688 L 200.039062 368.066406 L -97.4375 88.832031 Z M 115.070312 -137.554688 " clip-rule="nonzero"/></clipPath><clipPath id="6819559977"><path d="M 106 109 L 209 109 L 209 122 L 106 122 Z M 106 109 " clip-rule="nonzero"/></clipPath><clipPath id="2779f36549"><path d="M 153.03125 50.796875 L 219.746094 113.417969 L 149.933594 187.785156 L 83.222656 125.164062 Z M 153.03125 50.796875 " clip-rule="nonzero"/></clipPath><clipPath id="2492645f21"><path d="M 115.070312 -137.554688 L 412.542969 141.679688 L 200.039062 368.066406 L -97.4375 88.832031 Z M 115.070312 -137.554688 " clip-rule="nonzero"/></clipPath><clipPath id="0bba21e2dd"><path d="M 115.070312 -137.554688 L 412.542969 141.679688 L 200.039062 368.066406 L -97.4375 88.832031 Z M 115.070312 -137.554688 " clip-rule="nonzero"/></clipPath><clipPath id="caf8fe3d61"><path d="M 134 226 L 220 226 L 220 328 L 134 328 Z M 134 226 " clip-rule="nonzero"/></clipPath><clipPath id="17f5f1c0cc"><path d="M 153.03125 190.503906 L 219.746094 253.125 L 149.933594 327.492188 L 83.222656 264.871094 Z M 153.03125 190.503906 " clip-rule="nonzero"/></clipPath><clipPath id="fdfe0596fe"><path d="M 115.070312 2.152344 L 412.542969 281.386719 L 200.039062 507.773438 L -97.4375 228.539062 Z M 115.070312 2.152344 " clip-rule="nonzero"/></clipPath><clipPath id="79e6698a3d"><path d="M 115.070312 2.152344 L 412.542969 281.386719 L 200.039062 507.773438 L -97.4375 228.539062 Z M 115.070312 2.152344 " clip-rule="nonzero"/></clipPath><clipPath id="0886092ef3"><path d="M 83 190 L 178 190 L 178 282 L 83 282 Z M 83 190 " clip-rule="nonzero"/></clipPath><clipPath id="211d7f86e9"><path d="M 153.03125 190.503906 L 219.746094 253.125 L 149.933594 327.492188 L 83.222656 264.871094 Z M 153.03125 190.503906 " clip-rule="nonzero"/></clipPath><clipPath id="dae1c157b3"><path d="M 115.070312 2.152344 L 412.542969 281.386719 L 200.039062 507.773438 L -97.4375 228.539062 Z M 115.070312 2.152344 " clip-rule="nonzero"/></clipPath><clipPath id="b14c61486f"><path d="M 115.070312 2.152344 L 412.542969 281.386719 L 200.039062 507.773438 L -97.4375 228.539062 Z M 115.070312 2.152344 " clip-rule="nonzero"/></clipPath><clipPath id="2b38fc92ef"><path d="M 132 224 L 220 224 L 220 328 L 132 328 Z M 132 224 " clip-rule="nonzero"/></clipPath><clipPath id="f0bd70dcc0"><path d="M 153.03125 190.503906 L 219.746094 253.125 L 149.933594 327.492188 L 83.222656 264.871094 Z M 153.03125 190.503906 " clip-rule="nonzero"/></clipPath><clipPath id="1786415ffd"><path d="M 115.070312 2.152344 L 412.542969 281.386719 L 200.039062 507.773438 L -97.4375 228.539062 Z M 115.070312 2.152344 " clip-rule="nonzero"/></clipPath><clipPath id="f3a5292050"><path d="M 115.070312 2.152344 L 412.542969 281.386719 L 200.039062 507.773438 L -97.4375 228.539062 Z M 115.070312 2.152344 " clip-rule="nonzero"/></clipPath><clipPath id="a0d0a7f0f3"><path d="M 165 327 L 220 327 L 220 328 L 165 328 Z M 165 327 " clip-rule="nonzero"/></clipPath><clipPath id="e6d52105f5"><path d="M 153.03125 190.503906 L 219.746094 253.125 L 149.933594 327.492188 L 83.222656 264.871094 Z M 153.03125 190.503906 " clip-rule="nonzero"/></clipPath><clipPath id="4633c9ff41"><path d="M 115.070312 2.152344 L 412.542969 281.386719 L 200.039062 507.773438 L -97.4375 228.539062 Z M 115.070312 2.152344 " clip-rule="nonzero"/></clipPath><clipPath id="5dbb4f6cbf"><path d="M 115.070312 2.152344 L 412.542969 281.386719 L 200.039062 507.773438 L -97.4375 228.539062 Z M 115.070312 2.152344 " clip-rule="nonzero"/></clipPath><clipPath id="4d22f77e2d"><path d="M 83 190 L 183 190 L 183 286 L 83 286 Z M 83 190 " clip-rule="nonzero"/></clipPath><clipPath id="ca62ee2627"><path d="M 153.03125 190.503906 L 219.746094 253.125 L 149.933594 327.492188 L 83.222656 264.871094 Z M 153.03125 190.503906 " clip-rule="nonzero"/></clipPath><clipPath id="92a4269ea4"><path d="M 115.070312 2.152344 L 412.542969 281.386719 L 200.039062 507.773438 L -97.4375 228.539062 Z M 115.070312 2.152344 " clip-rule="nonzero"/></clipPath><clipPath id="932fab00ba"><path d="M 115.070312 2.152344 L 412.542969 281.386719 L 200.039062 507.773438 L -97.4375 228.539062 Z M 115.070312 2.152344 " clip-rule="nonzero"/></clipPath><clipPath id="1531fc3ec0"><path d="M 106 249 L 209 249 L 209 262 L 106 262 Z M 106 249 " clip-rule="nonzero"/></clipPath><clipPath id="447ee66f55"><path d="M 153.03125 190.503906 L 219.746094 253.125 L 149.933594 327.492188 L 83.222656 264.871094 Z M 153.03125 190.503906 " clip-rule="nonzero"/></clipPath><clipPath id="0f2361b6fc"><path d="M 115.070312 2.152344 L 412.542969 281.386719 L 200.039062 507.773438 L -97.4375 228.539062 Z M 115.070312 2.152344 " clip-rule="nonzero"/></clipPath><clipPath id="941d778076"><path d="M 115.070312 2.152344 L 412.542969 281.386719 L 200.039062 507.773438 L -97.4375 228.539062 Z M 115.070312 2.152344 " clip-rule="nonzero"/></clipPath><clipPath id="fffee75bdc"><path d="M 278 175.964844 L 281.25 175.964844 L 281.25 277.964844 L 278 277.964844 Z M 278 175.964844 " clip-rule="nonzero"/></clipPath><clipPath id="f1c8a3014f"><path d="M 189.75 175.964844 L 193 175.964844 L 193 277.964844 L 189.75 277.964844 Z M 189.75 175.964844 " clip-rule="nonzero"/></clipPath><clipPath id="c65ca6f183"><path d="M 277 175.964844 L 281.25 175.964844 L 281.25 277.964844 L 277 277.964844 Z M 277 175.964844 " clip-rule="nonzero"/></clipPath><clipPath id="c37242f288"><path d="M 189.75 175.964844 L 198 175.964844 L 198 277.964844 L 189.75 277.964844 Z M 189.75 175.964844 " clip-rule="nonzero"/></clipPath><clipPath id="fa2f80ad34"><path d="M 194.25 104.363281 L 198 104.363281 L 198 206.363281 L 194.25 206.363281 Z M 194.25 104.363281 " clip-rule="nonzero"/></clipPath><clipPath id="9eec98b01b"><path d="M 282 104.363281 L 285.75 104.363281 L 285.75 206.363281 L 282 206.363281 Z M 282 104.363281 " clip-rule="nonzero"/></clipPath><clipPath id="2a8dbc172f"><path d="M 194.25 104.363281 L 199 104.363281 L 199 206.363281 L 194.25 206.363281 Z M 194.25 104.363281 " clip-rule="nonzero"/></clipPath><clipPath id="331b96b857"><path d="M 278 104.363281 L 285.75 104.363281 L 285.75 206.363281 L 278 206.363281 Z M 278 104.363281 " clip-rule="nonzero"/></clipPath></defs><rect x="-37.5" width="450" fill="#ffffff" y="-37.499999" height="449.999989" fill-opacity="1"/><rect x="-37.5" width="450" fill="#ffffff" y="-37.499999" height="449.999989" fill-opacity="1"/><rect x="-37.5" width="450" fill="#ffffff" y="-37.499999" height="449.999989" fill-opacity="1"/><g clip-path="url(#609139d9f8)"><path fill="#ff9700" d="M 206.371094 75.722656 L 318.867188 75.722656 L 318.867188 300.722656 L 206.371094 300.722656 L 206.371094 75.722656 " fill-opacity="1" fill-rule="nonzero"/></g><g clip-path="url(#5ef92088b9)"><path fill="#ff5b00" d="M 133.875 90.089844 C 80.648438 90.089844 37.5 133.238281 37.5 186.464844 C 37.5 239.691406 80.648438 282.839844 133.875 282.839844 C 187.101562 282.839844 230.25 239.691406 230.25 186.464844 C 230.25 133.238281 187.101562 90.089844 133.875 90.089844 " fill-opacity="1" fill-rule="nonzero"/></g><g clip-path="url(#7339b2610e)"><g clip-path="url(#10d5c6e928)"><g clip-path="url(#270da73876)"><g clip-path="url(#74fa70a4cb)"><path fill="#ff5b00" d="M 241.34375 25.070312 L 138.085938 25.085938 C 135.285156 25.085938 132.597656 26.199219 130.617188 28.179688 L 88.386719 70.410156 C 85.371094 73.425781 84.464844 77.96875 86.097656 81.910156 C 87.734375 85.855469 91.582031 88.425781 95.851562 88.433594 L 188.554688 88.414062 L 188.539062 181.121094 C 188.539062 185.386719 191.105469 189.230469 195.054688 190.867188 C 198.996094 192.5 203.542969 191.597656 206.558594 188.582031 L 248.789062 146.351562 C 250.769531 144.367188 251.882812 141.683594 251.878906 138.878906 L 251.894531 35.625 C 251.894531 32.828125 250.785156 30.144531 248.804688 28.164062 C 246.824219 26.183594 244.136719 25.074219 241.34375 25.070312 Z M 241.34375 25.070312 " fill-opacity="1" fill-rule="nonzero"/><path fill="#ff9700" d="M 213.113281 74.40625 C 213.113281 71.609375 212.003906 68.925781 210.023438 66.945312 C 208.042969 64.964844 205.355469 63.851562 202.5625 63.851562 L 99.304688 63.867188 C 96.503906 63.867188 93.816406 64.980469 91.835938 66.960938 L 88.386719 70.410156 C 85.371094 73.425781 84.464844 77.96875 86.097656 81.910156 C 87.734375 85.855469 91.582031 88.425781 95.851562 88.433594 L 188.554688 88.414062 L 188.539062 181.121094 C 188.539062 185.386719 191.105469 189.230469 195.054688 190.867188 C 198.996094 192.5 203.542969 191.597656 206.558594 188.582031 L 210.007812 185.132812 C 211.988281 183.152344 213.101562 180.464844 213.097656 177.664062 Z M 213.113281 74.40625 " fill-opacity="1" fill-rule="nonzero"/></g></g></g></g><g clip-path="url(#47d2808bfd)"><g clip-path="url(#b1a87234cb)"><g clip-path="url(#fe9b17a661)"><g clip-path="url(#699ea79083)"><path fill="#11aaa6" d="M 24.503906 143.507812 C 20.558594 141.875 16.019531 142.78125 13 145.796875 L -29.230469 188.027344 C -31.210938 190.007812 -32.320312 192.691406 -32.324219 195.492188 L -32.335938 298.75 C -32.335938 301.546875 -31.226562 304.234375 -29.246094 306.214844 C -27.265625 308.195312 -24.582031 309.304688 -21.785156 309.304688 L 81.472656 309.289062 C 84.277344 309.289062 86.960938 308.179688 88.941406 306.195312 L 131.171875 263.964844 C 134.1875 260.949219 135.089844 256.40625 133.457031 252.464844 C 131.820312 248.515625 127.976562 245.949219 123.710938 245.949219 L 31.007812 245.960938 L 31.023438 153.261719 C 31.019531 148.992188 28.449219 145.140625 24.503906 143.507812 Z M 24.503906 143.507812 " fill-opacity="1" fill-rule="nonzero"/><path fill="#20d397" d="M 133.457031 252.464844 C 131.820312 248.515625 127.976562 245.949219 123.710938 245.949219 L 31.007812 245.960938 L 31.023438 153.261719 C 31.019531 148.988281 28.449219 145.140625 24.503906 143.507812 C 20.558594 141.875 16.019531 142.78125 13 145.796875 L 9.554688 149.242188 C 7.570312 151.226562 6.460938 153.910156 6.460938 156.710938 L 6.445312 259.96875 C 6.445312 262.765625 7.554688 265.449219 9.535156 267.429688 C 11.519531 269.410156 14.199219 270.519531 16.996094 270.519531 L 120.253906 270.507812 C 123.058594 270.507812 125.742188 269.394531 127.722656 267.414062 L 131.171875 263.964844 C 134.1875 260.949219 135.089844 256.40625 133.457031 252.464844 Z M 133.457031 252.464844 " fill-opacity="1" fill-rule="nonzero"/></g></g></g></g><g clip-path="url(#5722a1a32b)"><g clip-path="url(#ff9ea201f3)"><g clip-path="url(#72fd5ac46b)"><g clip-path="url(#1e22ec4f48)"><path stroke-linecap="round" transform="matrix(2.216124, -2.216124, 2.215506, 2.215506, -187.964383, 165.839111)" fill="none" stroke-linejoin="round" d="M 129.880579 65.118157 L 106.580112 41.818245 C 105.948202 41.186159 105.090673 40.830886 104.197009 40.830886 L 85.141003 40.830886 C 83.780237 40.830886 82.550789 41.651629 82.029926 42.90963 C 81.509063 44.169394 81.797256 45.617815 82.758782 46.583135 L 103.677909 67.499279 L 82.758782 88.41895 C 81.796375 89.381625 81.5073 90.829164 82.029926 92.088929 C 82.550789 93.34693 83.780237 94.169435 85.141003 94.169435 L 104.197009 94.169435 C 105.090673 94.169435 105.948202 93.814162 106.580112 93.180313 L 129.879698 69.881283 C 130.510727 69.250079 130.865901 68.394073 130.865901 67.500161 C 130.865901 66.606248 130.509845 65.749362 129.880579 65.118157 Z M 129.880579 65.118157 " stroke="#33363a" stroke-width="3" stroke-opacity="1" stroke-miterlimit="10"/></g></g></g></g><g clip-path="url(#9013ff080d)"><g clip-path="url(#1d3efa8ede)"><g clip-path="url(#7e9d40f836)"><g clip-path="url(#5633c9329a)"><path stroke-linecap="round" transform="matrix(2.216124, -2.216124, 2.215506, 2.215506, -187.964383, 165.839111)" fill="none" stroke-linejoin="round" d="M 52.975288 42.910511 C 52.453544 41.651629 51.224977 40.831768 49.86333 40.830886 L 30.807323 40.830886 C 29.91366 40.830886 29.057894 41.186159 28.425102 41.817364 L 5.125516 65.118157 C 4.494488 65.749362 4.138432 66.606248 4.138432 67.500161 C 4.138432 68.394073 4.493606 69.250079 5.124635 69.881283 L 28.425102 93.181195 C 29.057894 93.814162 29.91366 94.169435 30.808205 94.168554 L 49.864211 94.168554 C 51.224977 94.168554 52.453544 93.34693 52.974407 92.088929 C 53.496151 90.828283 53.207958 89.381625 52.245551 88.41895 L 31.327305 67.500161 L 52.245551 46.583135 C 53.207958 45.618696 53.497033 44.169394 52.975288 42.910511 Z M 52.975288 42.910511 " stroke="#33363a" stroke-width="3" stroke-opacity="1" stroke-miterlimit="10"/></g></g></g></g><g clip-path="url(#17f208814d)"><g clip-path="url(#50a986af14)"><g clip-path="url(#58f2907af8)"><g clip-path="url(#eac6e8f1a1)"><path stroke-linecap="round" transform="matrix(2.216124, -2.216124, 2.215506, 2.215506, -187.964383, 165.839111)" fill="none" stroke-linejoin="round" d="M 57.04084 77.959115 L 77.958205 57.041207 " stroke="#33363a" stroke-width="3" stroke-opacity="1" stroke-miterlimit="10"/></g></g></g></g><g clip-path="url(#6c315be868)"><g clip-path="url(#4cf262a23a)"><g clip-path="url(#5abdf89080)"><g clip-path="url(#12a2cc901b)"><path fill="#ff5b00" d="M 241.34375 67.800781 L 138.085938 67.816406 C 135.285156 67.816406 132.597656 68.929688 130.617188 70.910156 L 88.386719 113.140625 C 85.371094 116.15625 84.464844 120.699219 86.097656 124.640625 C 87.734375 128.585938 91.582031 131.15625 95.851562 131.164062 L 188.554688 131.144531 L 188.539062 223.851562 C 188.539062 228.117188 191.105469 231.960938 195.054688 233.597656 C 198.996094 235.230469 203.542969 234.328125 206.558594 231.308594 L 248.789062 189.078125 C 250.769531 187.097656 251.882812 184.414062 251.878906 181.609375 L 251.894531 78.351562 C 251.894531 75.558594 250.785156 72.875 248.804688 70.894531 C 246.824219 68.914062 244.136719 67.800781 241.34375 67.800781 Z M 241.34375 67.800781 " fill-opacity="1" fill-rule="nonzero"/><path fill="#ff9700" d="M 213.113281 117.136719 C 213.113281 114.339844 212.003906 111.65625 210.023438 109.675781 C 208.042969 107.695312 205.355469 106.582031 202.5625 106.582031 L 99.304688 106.597656 C 96.503906 106.597656 93.816406 107.710938 91.835938 109.691406 L 88.386719 113.140625 C 85.371094 116.15625 84.464844 120.699219 86.097656 124.640625 C 87.734375 128.585938 91.582031 131.15625 95.851562 131.164062 L 188.554688 131.144531 L 188.539062 223.851562 C 188.539062 228.117188 191.105469 231.960938 195.054688 233.597656 C 198.996094 235.230469 203.542969 234.328125 206.558594 231.308594 L 210.007812 227.863281 C 211.988281 225.882812 213.101562 223.195312 213.097656 220.390625 Z M 213.113281 117.136719 " fill-opacity="1" fill-rule="nonzero"/></g></g></g></g><g clip-path="url(#2e92f90ac9)"><g clip-path="url(#d18138ae7f)"><g clip-path="url(#901c5c8ebc)"><g clip-path="url(#c046bac132)"><path fill="#11aaa6" d="M 24.503906 186.238281 C 20.558594 184.605469 16.019531 185.507812 13 188.527344 L -29.230469 230.757812 C -31.210938 232.738281 -32.320312 235.421875 -32.324219 238.222656 L -32.335938 341.480469 C -32.335938 344.277344 -31.226562 346.960938 -29.246094 348.941406 C -27.265625 350.925781 -24.582031 352.035156 -21.785156 352.035156 L 81.472656 352.019531 C 84.277344 352.019531 86.960938 350.90625 88.941406 348.925781 L 131.171875 306.695312 C 134.1875 303.679688 135.089844 299.136719 133.457031 295.195312 C 131.820312 291.246094 127.976562 288.679688 123.710938 288.679688 L 31.007812 288.6875 L 31.023438 195.992188 C 31.019531 191.71875 28.449219 187.871094 24.503906 186.238281 Z M 24.503906 186.238281 " fill-opacity="1" fill-rule="nonzero"/><path fill="#20d397" d="M 133.457031 295.195312 C 131.820312 291.246094 127.976562 288.679688 123.710938 288.679688 L 31.007812 288.6875 L 31.023438 195.992188 C 31.019531 191.71875 28.449219 187.871094 24.503906 186.238281 C 20.558594 184.605469 16.019531 185.507812 13 188.527344 L 9.554688 191.972656 C 7.570312 193.957031 6.460938 196.640625 6.460938 199.441406 L 6.445312 302.699219 C 6.445312 305.496094 7.554688 308.179688 9.535156 310.160156 C 11.519531 312.140625 14.199219 313.25 16.996094 313.25 L 120.253906 313.238281 C 123.058594 313.238281 125.742188 312.125 127.722656 310.144531 L 131.171875 306.695312 C 134.1875 303.679688 135.089844 299.136719 133.457031 295.195312 Z M 133.457031 295.195312 " fill-opacity="1" fill-rule="nonzero"/></g></g></g></g><g clip-path="url(#71113c958e)"><g clip-path="url(#e89c572985)"><g clip-path="url(#dd64ade7bb)"><g clip-path="url(#1a2bde1f1d)"><path stroke-linecap="round" transform="matrix(2.216124, -2.216124, 2.215506, 2.215506, -187.964383, 208.5692)" fill="none" stroke-linejoin="round" d="M 129.880494 65.118243 L 106.580026 41.818331 C 105.948116 41.186245 105.090587 40.830972 104.196924 40.830972 L 85.140917 40.830972 C 83.780151 40.830972 82.550703 41.651714 82.02984 42.909716 C 81.508977 44.16948 81.79717 45.617901 82.758696 46.58322 L 103.677823 67.499365 L 82.758696 88.419036 C 81.796289 89.381711 81.508096 90.828368 82.02984 92.089014 C 82.550703 93.347016 83.780151 94.169521 85.140917 94.169521 L 104.196924 94.169521 C 105.091469 94.168639 105.948116 93.814248 106.580026 93.180399 L 129.879612 69.881369 C 130.510641 69.250164 130.865815 68.394159 130.865815 67.500246 C 130.865815 66.606334 130.50976 65.749447 129.880494 65.118243 Z M 129.880494 65.118243 " stroke="#33363a" stroke-width="3" stroke-opacity="1" stroke-miterlimit="10"/></g></g></g></g><g clip-path="url(#9244344b04)"><g clip-path="url(#9cf7793fa7)"><g clip-path="url(#0dc00ee917)"><g clip-path="url(#20352e4b64)"><path stroke-linecap="round" transform="matrix(2.216124, -2.216124, 2.215506, 2.215506, -187.964383, 208.5692)" fill="none" stroke-linejoin="round" d="M 52.975203 42.910597 C 52.453458 41.651714 51.225773 40.830972 49.863245 40.830972 L 30.807238 40.830972 C 29.913574 40.830972 29.057808 41.186245 28.425017 41.81745 L 5.125431 65.118243 C 4.494402 65.749447 4.139228 66.605452 4.139228 67.499365 C 4.138347 68.394159 4.493521 69.250164 5.124549 69.881369 L 28.425017 93.18128 C 29.057808 93.814248 29.914456 94.168639 30.808119 94.168639 L 49.864126 94.168639 C 51.224891 94.168639 52.453458 93.347016 52.974321 92.089014 C 53.496066 90.828368 53.207872 89.381711 52.245466 88.419036 L 31.328101 67.499365 L 52.245466 46.58322 C 53.208754 45.617901 53.496947 44.16948 52.975203 42.910597 Z M 52.975203 42.910597 " stroke="#33363a" stroke-width="3" stroke-opacity="1" stroke-miterlimit="10"/></g></g></g></g><g clip-path="url(#ca719d2ced)"><g clip-path="url(#a90f84df7a)"><g clip-path="url(#ddd67c20fc)"><g clip-path="url(#d14c495d54)"><path stroke-linecap="round" transform="matrix(2.216124, -2.216124, 2.215506, 2.215506, -187.964383, 208.5692)" fill="none" stroke-linejoin="round" d="M 57.040754 77.9592 L 77.958119 57.041293 " stroke="#33363a" stroke-width="3" stroke-opacity="1" stroke-miterlimit="10"/></g></g></g></g><g clip-path="url(#b5babdf71c)"><g clip-path="url(#2b3c8c667d)"><g clip-path="url(#69354acf90)"><g clip-path="url(#e9a93b5584)"><path fill="#ff5b00" d="M 302.332031 241.136719 L 299.054688 137.933594 C 298.964844 135.132812 297.769531 132.484375 295.726562 130.566406 L 252.179688 89.691406 C 249.070312 86.773438 244.503906 86.011719 240.613281 87.765625 C 236.722656 89.527344 234.273438 93.453125 234.402344 97.722656 L 237.351562 190.375 L 144.691406 193.292969 C 140.425781 193.425781 136.664062 196.113281 135.15625 200.113281 C 133.648438 204.105469 134.695312 208.617188 137.804688 211.539062 L 181.347656 252.414062 C 183.390625 254.328125 186.109375 255.355469 188.914062 255.265625 L 292.117188 252.019531 C 294.914062 251.929688 297.558594 250.734375 299.476562 248.691406 C 301.394531 246.652344 302.417969 243.929688 302.332031 241.136719 Z M 302.332031 241.136719 " fill-opacity="1" fill-rule="nonzero"/><path fill="#ff9700" d="M 252.128906 214.480469 C 254.925781 214.394531 257.570312 213.199219 259.488281 211.15625 C 261.40625 209.113281 262.433594 206.394531 262.34375 203.601562 L 259.066406 100.394531 C 258.976562 97.59375 257.78125 94.945312 255.738281 93.027344 L 252.179688 89.691406 C 249.070312 86.773438 244.503906 86.011719 240.613281 87.765625 C 236.722656 89.527344 234.273438 93.453125 234.402344 97.722656 L 237.351562 190.375 L 144.691406 193.292969 C 140.425781 193.425781 136.664062 196.113281 135.15625 200.113281 C 133.648438 204.105469 134.695312 208.617188 137.804688 211.539062 L 141.359375 214.875 C 143.402344 216.792969 146.121094 217.820312 148.925781 217.730469 Z M 252.128906 214.480469 " fill-opacity="1" fill-rule="nonzero"/></g></g></g></g><g clip-path="url(#70af7a09b6)"><g clip-path="url(#cd1576c861)"><g clip-path="url(#82ad49ba39)"><g clip-path="url(#fd065a0777)"><path fill="#11aaa6" d="M 177.101562 28.148438 C 178.609375 24.15625 177.558594 19.644531 174.449219 16.726562 L 130.90625 -24.148438 C 128.863281 -26.066406 126.144531 -27.089844 123.34375 -27.003906 L 20.136719 -23.757812 C 17.34375 -23.667969 14.695312 -22.472656 12.777344 -20.429688 C 10.859375 -18.386719 9.835938 -15.671875 9.925781 -12.875 L 13.203125 90.328125 C 13.292969 93.132812 14.488281 95.78125 16.53125 97.699219 L 60.074219 138.570312 C 63.183594 141.492188 67.753906 142.25 71.644531 140.492188 C 75.535156 138.734375 77.980469 134.808594 77.847656 130.546875 L 74.90625 37.890625 L 167.558594 34.976562 C 171.828125 34.835938 175.589844 32.144531 177.101562 28.148438 Z M 177.101562 28.148438 " fill-opacity="1" fill-rule="nonzero"/><path fill="#20d397" d="M 71.644531 140.492188 C 75.535156 138.734375 77.980469 134.808594 77.847656 130.546875 L 74.90625 37.890625 L 167.558594 34.976562 C 171.828125 34.835938 175.589844 32.144531 177.101562 28.148438 C 178.609375 24.15625 177.558594 19.644531 174.449219 16.726562 L 170.894531 13.386719 C 168.851562 11.46875 166.132812 10.445312 163.332031 10.53125 L 60.128906 13.78125 C 57.332031 13.867188 54.683594 15.066406 52.765625 17.105469 C 50.847656 19.148438 49.824219 21.867188 49.914062 24.660156 L 53.191406 127.867188 C 53.28125 130.671875 54.476562 133.316406 56.519531 135.234375 L 60.074219 138.570312 C 63.183594 141.492188 67.753906 142.25 71.644531 140.492188 Z M 71.644531 140.492188 " fill-opacity="1" fill-rule="nonzero"/></g></g></g></g><g clip-path="url(#ced962c430)"><g clip-path="url(#01f13b7948)"><g clip-path="url(#1aa0ffcc33)"><g clip-path="url(#533d5e6b0f)"><path stroke-linecap="round" transform="matrix(2.28506, 2.144973, -2.144375, 2.284423, 148.064906, -183.506561)" fill="none" stroke-linejoin="round" d="M 129.880002 65.118104 L 106.579691 41.817478 C 105.948021 41.186264 105.091593 40.831066 104.197485 40.831009 L 85.140755 40.83152 C 83.779333 40.830794 82.551528 41.651918 82.029433 42.90991 C 81.509044 44.16972 81.796558 45.618256 82.758907 46.583628 L 103.677999 67.499828 L 82.758988 88.41919 C 81.795647 89.381863 81.507414 90.828947 82.030142 92.089117 C 82.551164 93.347469 83.779955 94.168681 85.141377 94.169408 L 104.196345 94.168841 C 105.090454 94.168898 105.947283 93.81409 106.580139 93.180537 L 129.879332 69.880944 C 130.511224 69.250007 130.865414 68.394193 130.865471 67.499836 C 130.866381 66.606387 130.50991 65.749263 129.880002 65.118104 Z M 129.880002 65.118104 " stroke="#33363a" stroke-width="3" stroke-opacity="1" stroke-miterlimit="10"/></g></g></g></g><g clip-path="url(#6eeb07aa62)"><g clip-path="url(#31e42ca55c)"><g clip-path="url(#7eeb7fca96)"><g clip-path="url(#d7e5215b98)"><path stroke-linecap="round" transform="matrix(2.28506, 2.144973, -2.144375, 2.284423, 148.064906, -183.506561)" fill="none" stroke-linejoin="round" d="M 108.669908 62.499726 L 87.750896 83.419087 " stroke="#33363a" stroke-width="3" stroke-opacity="1" stroke-miterlimit="10"/></g></g></g></g><g clip-path="url(#34ad955cb6)"><g clip-path="url(#bba3a3bc91)"><g clip-path="url(#6268c28605)"><g clip-path="url(#d872a84836)"><path stroke-linecap="round" transform="matrix(2.28506, 2.144973, -2.144375, 2.284423, 148.064906, -183.506561)" fill="none" stroke-linejoin="round" d="M 52.975262 42.909951 C 52.45424 41.651599 51.22454 40.83124 49.863971 40.831423 L 30.80815 40.831081 C 29.914041 40.831023 29.058065 41.186741 28.425265 41.818531 L 5.124309 65.118069 C 4.49418 65.749061 4.139081 66.605728 4.139024 67.500086 C 4.138967 68.394443 4.493732 69.24975 5.125402 69.880964 L 28.42486 93.180681 C 29.058235 93.813713 29.914663 94.168911 30.808772 94.168968 L 49.86374 94.168401 C 51.225162 94.169128 52.453876 93.347151 52.975118 92.08825 C 53.49636 90.829349 53.207937 89.381665 52.246386 88.418964 L 31.328257 67.500149 L 52.246304 46.583403 C 53.208848 45.618058 53.496228 44.170066 52.975262 42.909951 Z M 52.975262 42.909951 " stroke="#33363a" stroke-width="3" stroke-opacity="1" stroke-miterlimit="10"/></g></g></g></g><g clip-path="url(#6819559977)"><g clip-path="url(#2779f36549)"><g clip-path="url(#2492645f21)"><g clip-path="url(#0bba21e2dd)"><path stroke-linecap="round" transform="matrix(2.28506, 2.144973, -2.144375, 2.284423, 148.064906, -183.506561)" fill="none" stroke-linejoin="round" d="M 57.041434 77.959159 L 77.957775 57.040595 " stroke="#33363a" stroke-width="3" stroke-opacity="1" stroke-miterlimit="10"/></g></g></g></g><g clip-path="url(#caf8fe3d61)"><g clip-path="url(#17f5f1c0cc)"><g clip-path="url(#fdfe0596fe)"><g clip-path="url(#79e6698a3d)"><path fill="#ff5b00" d="M 302.332031 380.84375 L 299.054688 277.636719 C 298.964844 274.839844 297.769531 272.191406 295.726562 270.273438 L 252.179688 229.398438 C 249.070312 226.476562 244.503906 225.71875 240.613281 227.472656 C 236.722656 229.234375 234.273438 233.160156 234.402344 237.429688 L 237.351562 330.082031 L 144.691406 333 C 140.425781 333.132812 136.664062 335.820312 135.15625 339.820312 C 133.648438 343.8125 134.695312 348.324219 137.804688 351.246094 L 181.347656 392.117188 C 183.390625 394.035156 186.109375 395.0625 188.914062 394.972656 L 292.117188 391.722656 C 294.914062 391.636719 297.558594 390.441406 299.476562 388.398438 C 301.394531 386.359375 302.417969 383.636719 302.332031 380.84375 Z M 302.332031 380.84375 " fill-opacity="1" fill-rule="nonzero"/><path fill="#ff9700" d="M 252.128906 354.1875 C 254.925781 354.097656 257.570312 352.90625 259.488281 350.863281 C 261.40625 348.820312 262.433594 346.101562 262.34375 343.304688 L 259.066406 240.101562 C 258.976562 237.300781 257.78125 234.652344 255.738281 232.734375 L 252.179688 229.398438 C 249.070312 226.476562 244.503906 225.71875 240.613281 227.472656 C 236.722656 229.234375 234.273438 233.160156 234.402344 237.429688 L 237.351562 330.082031 L 144.691406 333 C 140.425781 333.132812 136.664062 335.820312 135.15625 339.820312 C 133.648438 343.8125 134.695312 348.324219 137.804688 351.246094 L 141.359375 354.582031 C 143.402344 356.5 146.121094 357.527344 148.925781 357.4375 Z M 252.128906 354.1875 " fill-opacity="1" fill-rule="nonzero"/></g></g></g></g><g clip-path="url(#0886092ef3)"><g clip-path="url(#211d7f86e9)"><g clip-path="url(#dae1c157b3)"><g clip-path="url(#b14c61486f)"><path fill="#11aaa6" d="M 177.101562 167.855469 C 178.609375 163.863281 177.558594 159.351562 174.449219 156.433594 L 130.90625 115.558594 C 128.863281 113.640625 126.144531 112.613281 123.34375 112.699219 L 20.136719 115.949219 C 17.34375 116.039062 14.695312 117.234375 12.777344 119.277344 C 10.859375 121.320312 9.835938 124.035156 9.925781 126.832031 L 13.203125 230.035156 C 13.292969 232.839844 14.488281 235.488281 16.53125 237.402344 L 60.074219 278.277344 C 63.183594 281.199219 67.753906 281.957031 71.644531 280.199219 C 75.535156 278.4375 77.980469 274.515625 77.847656 270.253906 L 74.90625 177.597656 L 167.558594 174.679688 C 171.828125 174.539062 175.589844 171.851562 177.101562 167.855469 Z M 177.101562 167.855469 " fill-opacity="1" fill-rule="nonzero"/><path fill="#20d397" d="M 71.644531 280.199219 C 75.535156 278.4375 77.980469 274.515625 77.847656 270.253906 L 74.90625 177.597656 L 167.558594 174.679688 C 171.828125 174.542969 175.589844 171.851562 177.101562 167.855469 C 178.609375 163.863281 177.558594 159.351562 174.449219 156.433594 L 170.894531 153.09375 C 168.851562 151.175781 166.132812 150.152344 163.332031 150.238281 L 60.128906 153.488281 C 57.332031 153.574219 54.683594 154.769531 52.765625 156.8125 C 50.847656 158.855469 49.824219 161.574219 49.914062 164.367188 L 53.191406 267.574219 C 53.28125 270.375 54.476562 273.023438 56.519531 274.941406 L 60.074219 278.277344 C 63.183594 281.199219 67.753906 281.957031 71.644531 280.199219 Z M 71.644531 280.199219 " fill-opacity="1" fill-rule="nonzero"/></g></g></g></g><g clip-path="url(#2b38fc92ef)"><g clip-path="url(#f0bd70dcc0)"><g clip-path="url(#1786415ffd)"><g clip-path="url(#f3a5292050)"><path stroke-linecap="round" transform="matrix(2.28506, 2.144973, -2.144375, 2.284423, 148.064906, -43.800088)" fill="none" stroke-linejoin="round" d="M 129.880124 65.118234 L 106.579813 41.817608 C 105.948143 41.186394 105.090862 40.830287 104.197607 40.831139 L 85.140877 40.83165 C 83.779455 40.830924 82.55165 41.652048 82.029555 42.91004 C 81.509166 44.16985 81.79668 45.618386 82.759029 46.583758 L 103.678121 67.499958 L 82.75911 88.41932 C 81.795769 89.381993 81.507536 90.829077 82.030264 92.089247 C 82.550433 93.34669 83.780077 94.168811 85.140646 94.168629 L 104.196467 94.168971 C 105.090576 94.169028 105.947405 93.81422 106.580261 93.180667 L 129.879454 69.881074 C 130.511346 69.250137 130.865536 68.394323 130.865593 67.499966 C 130.86565 66.605608 130.510032 65.749393 129.880124 65.118234 Z M 129.880124 65.118234 " stroke="#33363a" stroke-width="3" stroke-opacity="1" stroke-miterlimit="10"/></g></g></g></g><g clip-path="url(#a0d0a7f0f3)"><g clip-path="url(#e6d52105f5)"><g clip-path="url(#4633c9ff41)"><g clip-path="url(#5dbb4f6cbf)"><path stroke-linecap="round" transform="matrix(2.28506, 2.144973, -2.144375, 2.284423, 148.064906, -43.800088)" fill="none" stroke-linejoin="round" d="M 108.67003 62.499856 L 87.751018 83.419217 " stroke="#33363a" stroke-width="3" stroke-opacity="1" stroke-miterlimit="10"/></g></g></g></g><g clip-path="url(#4d22f77e2d)"><g clip-path="url(#ca62ee2627)"><g clip-path="url(#92a4269ea4)"><g clip-path="url(#932fab00ba)"><path stroke-linecap="round" transform="matrix(2.28506, 2.144973, -2.144375, 2.284423, 148.064906, -43.800088)" fill="none" stroke-linejoin="round" d="M 52.975384 42.910081 C 52.454362 41.651729 51.224662 40.83137 49.864093 40.831553 L 30.808272 40.831211 C 29.914163 40.831153 29.057334 41.185962 28.424534 41.817752 L 5.124432 65.118199 C 4.494302 65.749191 4.139203 66.605858 4.139146 67.500216 C 4.139089 68.394574 4.493854 69.24988 5.125524 69.881094 L 28.424982 93.180811 C 29.058357 93.813843 29.914785 94.169041 30.808041 94.168189 L 49.863862 94.168531 C 51.225284 94.169258 52.453998 93.347281 52.97524 92.08838 C 53.495629 90.82857 53.208059 89.381795 52.246508 88.419095 L 31.328379 67.500279 L 52.245573 46.582624 C 53.208117 45.61728 53.49635 44.170196 52.975384 42.910081 Z M 52.975384 42.910081 " stroke="#33363a" stroke-width="3" stroke-opacity="1" stroke-miterlimit="10"/></g></g></g></g><g clip-path="url(#1531fc3ec0)"><g clip-path="url(#447ee66f55)"><g clip-path="url(#0f2361b6fc)"><g clip-path="url(#941d778076)"><path stroke-linecap="round" transform="matrix(2.28506, 2.144973, -2.144375, 2.284423, 148.064906, -43.800088)" fill="none" stroke-linejoin="round" d="M 57.041556 77.959289 L 77.957897 57.040725 " stroke="#33363a" stroke-width="3" stroke-opacity="1" stroke-miterlimit="10"/></g></g></g></g><g clip-path="url(#fffee75bdc)"><path fill="#ff5b00" d="M 428.875 212.558594 L 355.851562 139.554688 C 353.871094 137.574219 351.183594 136.464844 348.382812 136.464844 L 288.660156 136.464844 C 284.394531 136.464844 280.542969 139.035156 278.910156 142.976562 C 277.277344 146.925781 278.179688 151.460938 281.195312 154.484375 L 346.757812 220.023438 L 281.195312 285.566406 C 278.175781 288.582031 277.273438 293.117188 278.910156 297.066406 C 280.542969 301.007812 284.394531 303.582031 288.660156 303.582031 L 348.382812 303.582031 C 351.183594 303.582031 353.871094 302.46875 355.851562 300.488281 L 428.875 227.484375 C 430.851562 225.507812 431.964844 222.824219 431.964844 220.023438 C 431.964844 217.222656 430.851562 214.535156 428.875 212.558594 Z M 428.875 212.558594 " fill-opacity="1" fill-rule="nonzero"/><path fill="#ff9700" d="M 374.03125 227.484375 C 376.007812 225.507812 377.121094 222.824219 377.121094 220.023438 C 377.121094 217.222656 376.007812 214.535156 374.03125 212.558594 L 301.003906 139.554688 C 299.023438 137.574219 296.339844 136.464844 293.539062 136.464844 L 288.660156 136.464844 C 284.394531 136.464844 280.542969 139.035156 278.910156 142.976562 C 277.277344 146.925781 278.179688 151.460938 281.195312 154.484375 L 346.757812 220.023438 L 281.195312 285.566406 C 278.175781 288.582031 277.273438 293.117188 278.910156 297.066406 C 280.542969 301.007812 284.394531 303.582031 288.660156 303.582031 L 293.539062 303.582031 C 296.339844 303.582031 299.023438 302.46875 301.003906 300.488281 Z M 374.03125 227.484375 " fill-opacity="1" fill-rule="nonzero"/></g><g clip-path="url(#f1c8a3014f)"><path fill="#11aaa6" d="M 191.800781 142.976562 C 190.167969 139.035156 186.3125 136.464844 182.050781 136.464844 L 122.324219 136.464844 C 119.523438 136.464844 116.839844 137.574219 114.859375 139.554688 L 41.832031 212.558594 C 39.855469 214.535156 38.742188 217.222656 38.742188 220.023438 C 38.742188 222.824219 39.855469 225.507812 41.832031 227.484375 L 114.859375 300.488281 C 116.839844 302.46875 119.523438 303.582031 122.324219 303.582031 L 182.050781 303.582031 C 186.3125 303.582031 190.167969 301.007812 191.800781 297.066406 C 193.433594 293.117188 192.527344 288.582031 189.515625 285.566406 L 123.957031 220.023438 L 189.515625 154.484375 C 192.527344 151.460938 193.433594 146.925781 191.800781 142.976562 Z M 191.800781 142.976562 " fill-opacity="1" fill-rule="nonzero"/><path fill="#20d397" d="M 191.800781 297.066406 C 193.433594 293.117188 192.527344 288.582031 189.515625 285.566406 L 123.957031 220.023438 L 189.515625 154.484375 C 192.53125 151.460938 193.433594 146.925781 191.800781 142.976562 C 190.167969 139.035156 186.3125 136.464844 182.050781 136.464844 L 177.171875 136.464844 C 174.371094 136.464844 171.6875 137.574219 169.703125 139.554688 L 96.679688 212.558594 C 94.703125 214.535156 93.589844 217.222656 93.589844 220.023438 C 93.589844 222.824219 94.703125 225.507812 96.679688 227.484375 L 169.703125 300.488281 C 171.6875 302.46875 174.371094 303.582031 177.171875 303.582031 L 182.050781 303.582031 C 186.3125 303.582031 190.167969 301.007812 191.800781 297.066406 Z M 191.800781 297.066406 " fill-opacity="1" fill-rule="nonzero"/></g><g clip-path="url(#c65ca6f183)"><path stroke-linecap="round" transform="matrix(3.134072, 0, 0, 3.133199, 25.771545, 8.531905)" fill="none" stroke-linejoin="round" d="M 129.879794 65.117698 L 106.579938 41.817578 C 105.948022 41.185487 105.090512 40.831416 104.196856 40.831416 L 85.140928 40.831416 C 83.77988 40.831416 82.550947 41.651763 82.02996 42.909713 C 81.508972 44.170156 81.796887 45.617609 82.759093 46.582577 L 103.678361 67.500198 L 82.759093 88.419065 C 81.79564 89.38154 81.507726 90.828993 82.02996 92.089436 C 82.550947 93.347385 83.77988 94.16898 85.140928 94.16898 L 104.196856 94.16898 C 105.090512 94.16898 105.948022 93.813662 106.579938 93.18157 L 129.879794 69.88145 C 130.510464 69.250605 130.865682 68.394102 130.865682 67.500198 C 130.865682 66.606293 130.510464 65.748543 129.879794 65.117698 Z M 129.879794 65.117698 " stroke="#33363a" stroke-width="3" stroke-opacity="1" stroke-miterlimit="10"/></g><g clip-path="url(#c37242f288)"><path stroke-linecap="round" transform="matrix(3.134072, 0, 0, 3.133199, 25.771545, 8.531905)" fill="none" stroke-linejoin="round" d="M 52.975559 42.909713 C 52.454572 41.651763 51.224393 40.831416 49.864591 40.831416 L 30.807417 40.831416 C 29.913761 40.831416 29.057497 41.185487 28.425582 41.817578 L 5.124479 65.117698 C 4.49381 65.748543 4.138591 66.606293 4.138591 67.500198 C 4.138591 68.394102 4.49381 69.250605 5.124479 69.88145 L 28.425582 93.18157 C 29.057497 93.813662 29.913761 94.16898 30.807417 94.16898 L 49.864591 94.16898 C 51.224393 94.16898 52.454572 93.347385 52.975559 92.089436 C 53.496547 90.828993 53.207386 89.38154 52.246426 88.419065 L 31.328404 67.500198 L 52.246426 46.582577 C 53.207386 45.617609 53.496547 44.170156 52.975559 42.909713 Z M 52.975559 42.909713 " stroke="#33363a" stroke-width="3" stroke-opacity="1" stroke-miterlimit="10"/></g><path stroke-linecap="round" transform="matrix(3.134072, 0, 0, 3.133199, 25.771545, 8.531905)" fill="none" stroke-linejoin="round" d="M 57.041256 77.959008 L 77.958031 57.041387 " stroke="#33363a" stroke-width="3" stroke-opacity="1" stroke-miterlimit="10"/><g clip-path="url(#fa2f80ad34)"><path fill="#ff5b00" d="M 46.578125 140.957031 L 119.601562 67.953125 C 121.582031 65.972656 124.269531 64.863281 127.070312 64.863281 L 186.792969 64.863281 C 191.058594 64.863281 194.910156 67.433594 196.542969 71.375 C 198.175781 75.324219 197.273438 79.859375 194.257812 82.882812 L 128.695312 148.421875 L 194.257812 213.964844 C 197.277344 216.980469 198.179688 221.515625 196.542969 225.464844 C 194.910156 229.40625 191.058594 231.980469 186.792969 231.980469 L 127.070312 231.980469 C 124.269531 231.980469 121.582031 230.867188 119.601562 228.886719 L 46.578125 155.882812 C 44.597656 153.902344 43.488281 151.222656 43.488281 148.421875 C 43.488281 145.621094 44.601562 142.933594 46.578125 140.957031 Z M 46.578125 140.957031 " fill-opacity="1" fill-rule="nonzero"/><path fill="#ff9700" d="M 101.421875 155.882812 C 99.445312 153.902344 98.332031 151.222656 98.332031 148.421875 C 98.332031 145.621094 99.445312 142.933594 101.421875 140.957031 L 174.449219 67.953125 C 176.429688 65.972656 179.113281 64.863281 181.914062 64.863281 L 186.792969 64.863281 C 191.058594 64.863281 194.910156 67.433594 196.542969 71.375 C 198.175781 75.324219 197.273438 79.859375 194.257812 82.882812 L 128.695312 148.421875 L 194.257812 213.964844 C 197.277344 216.980469 198.179688 221.515625 196.542969 225.464844 C 194.910156 229.40625 191.058594 231.980469 186.792969 231.980469 L 181.914062 231.980469 C 179.113281 231.980469 176.429688 230.867188 174.449219 228.886719 Z M 101.421875 155.882812 " fill-opacity="1" fill-rule="nonzero"/></g><g clip-path="url(#9eec98b01b)"><path fill="#11aaa6" d="M 283.652344 71.375 C 285.285156 67.433594 289.140625 64.863281 293.402344 64.863281 L 353.128906 64.863281 C 355.929688 64.863281 358.613281 65.972656 360.59375 67.953125 L 433.621094 140.957031 C 435.597656 142.933594 436.710938 145.621094 436.710938 148.421875 C 436.710938 151.222656 435.597656 153.902344 433.621094 155.882812 L 360.59375 228.886719 C 358.613281 230.867188 355.929688 231.980469 353.128906 231.980469 L 293.402344 231.980469 C 289.140625 231.980469 285.285156 229.40625 283.652344 225.464844 C 282.019531 221.515625 282.925781 216.980469 285.9375 213.964844 L 351.496094 148.421875 L 285.9375 82.882812 C 282.925781 79.859375 282.019531 75.324219 283.652344 71.375 Z M 283.652344 71.375 " fill-opacity="1" fill-rule="nonzero"/><path fill="#20d397" d="M 283.652344 225.464844 C 282.019531 221.515625 282.925781 216.980469 285.9375 213.964844 L 351.496094 148.421875 L 285.9375 82.882812 C 282.921875 79.859375 282.019531 75.324219 283.652344 71.375 C 285.285156 67.433594 289.140625 64.863281 293.402344 64.863281 L 298.28125 64.863281 C 301.082031 64.863281 303.765625 65.972656 305.75 67.953125 L 378.773438 140.957031 C 380.75 142.933594 381.863281 145.621094 381.863281 148.421875 C 381.863281 151.222656 380.75 153.902344 378.773438 155.882812 L 305.75 228.886719 C 303.765625 230.867188 301.082031 231.980469 298.28125 231.980469 L 293.402344 231.980469 C 289.140625 231.980469 285.285156 229.40625 283.652344 225.464844 Z M 283.652344 225.464844 " fill-opacity="1" fill-rule="nonzero"/></g><g clip-path="url(#2a8dbc172f)"><path stroke-linecap="round" transform="matrix(-3.134072, 0, 0, 3.133199, 449.681567, -63.069809)" fill="none" stroke-linejoin="round" d="M 129.87979 65.117747 L 106.579933 41.817627 C 105.948018 41.185535 105.090507 40.831464 104.196852 40.831464 L 85.140924 40.831464 C 83.779875 40.831464 82.550943 41.651812 82.029956 42.909761 C 81.508968 44.170205 81.796882 45.617657 82.759089 46.582625 L 103.678357 67.500246 L 82.759089 88.419114 C 81.795636 89.381589 81.507722 90.829041 82.029956 92.089484 C 82.550943 93.347434 83.779875 94.169028 85.140924 94.169028 L 104.196852 94.169028 C 105.090507 94.169028 105.948018 93.81371 106.579933 93.181619 L 129.87979 69.881499 C 130.510459 69.249407 130.865678 68.394151 130.865678 67.500246 C 130.865678 66.606341 130.510459 65.748592 129.87979 65.117747 Z M 129.87979 65.117747 " stroke="#33363a" stroke-width="3" stroke-opacity="1" stroke-miterlimit="10"/></g><g clip-path="url(#331b96b857)"><path stroke-linecap="round" transform="matrix(-3.134072, 0, 0, 3.133199, 449.681567, -63.069809)" fill="none" stroke-linejoin="round" d="M 52.975555 42.909761 C 52.454568 41.651812 51.224389 40.831464 49.864587 40.831464 L 30.807413 40.831464 C 29.913757 40.831464 29.057493 41.185535 28.425578 41.817627 L 5.124474 65.117747 C 4.493805 65.748592 4.138586 66.606341 4.138586 67.500246 C 4.138586 68.394151 4.493805 69.249407 5.124474 69.881499 L 28.425578 93.181619 C 29.057493 93.81371 29.913757 94.169028 30.807413 94.169028 L 49.864587 94.169028 C 51.224389 94.169028 52.454568 93.347434 52.975555 92.089484 C 53.496543 90.829041 53.207382 89.381589 52.246422 88.419114 L 31.3284 67.500246 L 52.246422 46.582625 C 53.207382 45.617657 53.496543 44.170205 52.975555 42.909761 Z M 52.975555 42.909761 " stroke="#33363a" stroke-width="3" stroke-opacity="1" stroke-miterlimit="10"/></g><path stroke-linecap="round" transform="matrix(-3.134072, 0, 0, 3.133199, 449.681567, -63.069809)" fill="none" stroke-linejoin="round" d="M 57.041252 77.959057 L 77.958027 57.041436 " stroke="#33363a" stroke-width="3" stroke-opacity="1" stroke-miterlimit="10"/></svg>