<svg width="256" height="256" viewBox="0 0 256 256" fill="none" xmlns="http://www.w3.org/2000/svg">
<g clip-path="url(#clip0_23_10)">
<circle cx="128" cy="128" r="128" fill="white"/>
<path fill-rule="evenodd" clip-rule="evenodd" d="M78 60H126.593H130.255V60.0317L114.902 60.0099C113.059 60.0072 111.446 60.696 110.062 62.0762C108.677 63.4563 107.984 65.0678 107.981 66.9107L107.87 145.232C107.867 147.075 108.556 148.688 109.936 150.072C111.316 151.457 112.928 152.15 114.771 152.153L174.663 152.238C176.506 152.241 178.12 151.552 179.504 150.172C180.888 148.791 181.581 147.18 181.584 145.337L181.666 87.7662C184.978 92.2434 187.738 97.1179 189.879 102.286C193.322 110.597 195.093 119.504 195.093 128.5C195.093 137.496 193.322 146.403 189.879 154.714C186.437 163.025 181.391 170.576 175.03 176.937C168.669 183.298 161.118 188.343 152.807 191.786C144.496 195.228 135.589 197 126.593 197V196.859H78V60ZM163.289 132.641L126.201 132.589L126.211 125.678L163.299 125.731L163.289 132.641ZM163.317 113.061L126.229 113.008L126.239 106.097L163.326 106.15L163.317 113.061ZM153.016 66.9749L152.986 88.3981L174.754 88.4291L174.673 145.327L114.78 145.242L114.892 66.9206L153.016 66.9749Z" fill="url(#paint0_linear_23_10)"/>
</g>
<defs>
<linearGradient id="paint0_linear_23_10" x1="78" y1="60" x2="166.374" y2="197.47" gradientUnits="userSpaceOnUse">
<stop stop-color="#311ABE"/>
<stop offset="1" stop-color="#01010F"/>
</linearGradient>
<clipPath id="clip0_23_10">
<rect width="256" height="256" fill="white"/>
</clipPath>
</defs>
</svg>
