<svg xmlns="http://www.w3.org/2000/svg" version="1.1" xmlns:xlink="http://www.w3.org/1999/xlink" xmlns:svgjs="http://svgjs.dev/svgjs" width="2000" height="792" viewBox="0 0 2000 792"><g transform="matrix(1,0,0,1,-1.2120981852928026,-0.09382978113507079)"><svg viewBox="0 0 396 157" data-background-color="#ffffff" preserveAspectRatio="xMidYMid meet" height="792" width="2000" xmlns="http://www.w3.org/2000/svg" xmlns:xlink="http://www.w3.org/1999/xlink"><defs></defs><g id="tight-bounds" transform="matrix(1,0,0,1,0.23999544068797718,0.018600282978653127)"><svg viewBox="0 0 395.5199999999999 156.96279962151854" height="156.96279962151854" width="395.5199999999999"><g><svg viewBox="0 0 821.0751374569111 325.845095759658" height="156.96279962151854" width="395.5199999999999"><g><svg viewBox="0 0 821.0751374569111 325.845095759658" height="325.845095759658" width="821.0751374569111"><g><svg viewBox="0 0 821.0751374569111 325.845095759658" height="325.845095759658" width="821.0751374569111"><g><svg viewBox="0 0 821.0751374569111 245.672304" height="245.672304" width="821.0751374569111"><g><svg><g></g><g></g></svg></g><g><svg><g><svg></svg></g><g></g></svg></g><g id="text-0"><svg viewBox="0 0 821.0751374569111 245.672304" height="245.672304" width="821.0751374569111"><g transform="matrix(1,0,0,1,0,75.37774051315789)"><svg width="245.672304" viewBox="4.699999809265137 -35.04999923706055 91.20000457763672 35.04999923706055" height="94.41682297368422" data-palette-color="#a437db"><path d="M6.2-35L18.95-35Q22.65-35 25.43-33.6 28.2-32.2 30-29.73 31.8-27.25 32.68-24.1 33.55-20.95 33.55-17.5L33.55-17.5Q33.55-12.7 31.98-8.72 30.4-4.75 27.18-2.38 23.95 0 18.95 0L18.95 0 6.2 0Q5.6 0 5.15-0.45 4.7-0.9 4.7-1.5L4.7-1.5 4.7-33.5Q4.7-34.1 5.15-34.55 5.6-35 6.2-35L6.2-35ZM7.55-2.95L18.45-2.95Q22.7-2.95 25.3-4.9 27.9-6.85 29.13-10.18 30.35-13.5 30.35-17.5L30.35-17.5Q30.35-20.4 29.68-23.03 29-25.65 27.58-27.68 26.15-29.7 23.88-30.88 21.6-32.05 18.45-32.05L18.45-32.05 7.5-32.05 7.85-32.5 7.85-2.45 7.55-2.95ZM42.15-35L42.15-35 60.5-35Q61.1-35 61.55-34.58 62-34.15 62-33.5L62-33.5Q62-32.85 61.55-32.45 61.1-32.05 60.5-32.05L60.5-32.05 43.3-32.05 43.8-32.9 43.8-18.85 43.25-19.5 58.25-19.5Q58.85-19.5 59.3-19.05 59.75-18.6 59.75-18L59.75-18Q59.75-17.35 59.3-16.95 58.85-16.55 58.25-16.55L58.25-16.55 43.35-16.55 43.8-17.05 43.8-2.65 43.55-2.95 60.5-2.95Q61.1-2.95 61.55-2.5 62-2.05 62-1.45L62-1.45Q62-0.8 61.55-0.4 61.1 0 60.5 0L60.5 0 42.15 0Q41.55 0 41.1-0.45 40.65-0.9 40.65-1.5L40.65-1.5 40.65-33.5Q40.65-34.1 41.1-34.55 41.55-35 42.15-35ZM94.35-35.05L94.35-35.05Q95.05-35.05 95.47-34.65 95.9-34.25 95.9-33.65L95.9-33.65Q95.9-33.3 95.75-32.9L95.75-32.9 82.4-1Q82.15-0.5 81.75-0.25 81.35 0 80.95 0L80.95 0Q80.5 0 80.1-0.25 79.7-0.5 79.55-0.95L79.55-0.95 66.25-32.8Q66.2-32.95 66.15-33.15 66.1-33.35 66.1-33.6L66.1-33.6Q66.1-34.25 66.57-34.65 67.05-35.05 67.55-35.05L67.55-35.05Q68.6-35.05 69.05-33.95L69.05-33.95 81.55-4.05 80.65-4.05 92.95-34.05Q93.45-35.05 94.35-35.05Z" opacity="1" transform="matrix(1,0,0,1,0,0)" fill="#a437db" class="undefined-s-0"></path></svg></g><g><svg xmlns="http://www.w3.org/2000/svg" xmlns:xlink="http://www.w3.org/1999/xlink" version="1.1" x="259.405204" y="0" viewBox="5 11.472000122070312 90 77.05599212646484" enable-background="new 0 0 100 100" xml:space="preserve" height="245.672304" width="286.9407913626247" class="icon-x-0" data-fill-palette-color="accent" id="x-0"><g fill="#8b3c7f" data-fill-palette-color="accent"><rect x="45.902" y="26.348" width="8.196" height="4.884" fill="#8b3c7f" data-fill-palette-color="accent"></rect><polygon points="54.098,57.972 54.098,36.285 45.902,36.285 45.902,57.993 49.923,65.119  " fill="#8b3c7f" data-fill-palette-color="accent"></polygon><path d="M91.368 26.679L54.303 12.143c-1.088-0.427-2.657-0.671-4.303-0.671s-3.215 0.245-4.303 0.671L8.632 26.679C6.731 27.424 5 29.963 5 32.006v35.988c0 2.042 1.731 4.581 3.632 5.327l25.71 10.083c3.479-4.736 9.084-7.818 15.398-7.818 6.384 0 12.041 3.151 15.511 7.976l26.116-10.242C93.269 72.575 95 70.037 95 67.994V32.006C95 29.963 93.269 27.425 91.368 26.679zM59.151 59.34l-9.304 15.927L40.849 59.32V21.295h18.302V59.34z" fill="#8b3c7f" data-fill-palette-color="accent"></path><path d="M49.741 80.643c-4.156 0-7.894 1.816-10.468 4.695l6.423 2.519c1.088 0.427 2.657 0.671 4.303 0.671s3.215-0.245 4.303-0.671l6.037-2.368C57.763 82.523 53.969 80.643 49.741 80.643z" fill="#8b3c7f" data-fill-palette-color="accent"></path></g></svg></g><g transform="matrix(1,0,0,1,560.0788953626247,46.723410064)"><svg width="260.9962420942865" viewBox="2.4000000953674316 -35.45000076293945 61.79999542236328 35.95000076293945" height="151.825483872" data-palette-color="#a437db"><path d="M30.25-32.4L30.25-32.4Q30.85-32 30.95-31.38 31.05-30.75 30.65-30.15L30.65-30.15Q30.3-29.7 29.75-29.65 29.2-29.6 28.7-29.85L28.7-29.85Q26.8-31.1 24.63-31.8 22.45-32.5 19.95-32.5L19.95-32.5Q16.9-32.5 14.28-31.43 11.65-30.35 9.7-28.33 7.75-26.3 6.68-23.55 5.6-20.8 5.6-17.5L5.6-17.5Q5.6-14.1 6.7-11.33 7.8-8.55 9.78-6.55 11.75-4.55 14.35-3.5 16.95-2.45 19.95-2.45L19.95-2.45Q22.4-2.45 24.58-3.15 26.75-3.85 28.65-5.05L28.65-5.05Q29.15-5.35 29.73-5.28 30.3-5.2 30.65-4.7L30.65-4.7Q31.1-4.15 30.98-3.53 30.85-2.9 30.3-2.55L30.3-2.55Q29.05-1.75 27.35-1.05 25.65-0.35 23.75 0.08 21.85 0.5 19.95 0.5L19.95 0.5Q16.35 0.5 13.2-0.8 10.05-2.1 7.6-4.48 5.15-6.85 3.78-10.15 2.4-13.45 2.4-17.5L2.4-17.5Q2.4-21.4 3.75-24.68 5.1-27.95 7.5-30.35 9.9-32.75 13.1-34.1 16.3-35.45 19.95-35.45L19.95-35.45Q22.8-35.45 25.45-34.65 28.1-33.85 30.25-32.4ZM62.65-35.05L62.65-35.05Q63.35-35.05 63.77-34.65 64.2-34.25 64.2-33.65L64.2-33.65Q64.2-33.3 64.05-32.9L64.05-32.9 50.7-1Q50.45-0.5 50.05-0.25 49.65 0 49.25 0L49.25 0Q48.8 0 48.4-0.25 48-0.5 47.85-0.95L47.85-0.95 34.55-32.8Q34.5-32.95 34.45-33.15 34.4-33.35 34.4-33.6L34.4-33.6Q34.4-34.25 34.87-34.65 35.35-35.05 35.85-35.05L35.85-35.05Q36.9-35.05 37.35-33.95L37.35-33.95 49.85-4.05 48.95-4.05 61.25-34.05Q61.75-35.05 62.65-35.05Z" opacity="1" transform="matrix(1,0,0,1,0,0)" fill="#a437db" class="undefined-s-1"></path></svg></g></svg></g></svg></g><g transform="matrix(1,0,0,1,156.82535125427003,267.9618499003355)"><svg viewBox="0 0 507.424434948371 57.883245859322535" height="57.883245859322535" width="507.424434948371"><g transform="matrix(1,0,0,1,0,0)"><svg width="507.424434948371" viewBox="2.4000000953674316 -40.849998474121094 362.010009765625 41.29999923706055" height="57.883245859322535" data-palette-color="#b19dd0"><path d="M13.3 0.45L13.3 0.45Q9 0.45 6.63-1.35 4.25-3.15 3.33-6.2 2.4-9.25 2.4-13L2.4-13 2.4-27.3Q2.4-31.4 3.33-34.45 4.25-37.5 6.63-39.18 9-40.85 13.3-40.85L13.3-40.85Q17.1-40.85 19.33-39.45 21.55-38.05 22.53-35.45 23.5-32.85 23.5-29.2L23.5-29.2 23.5-26 18.15-26 18.15-28.85Q18.15-31.1 17.93-32.83 17.7-34.55 16.7-35.5 15.7-36.45 13.35-36.45L13.35-36.45Q10.95-36.45 9.85-35.43 8.75-34.4 8.43-32.52 8.1-30.65 8.1-28.15L8.1-28.15 8.1-12.1Q8.1-9.05 8.6-7.28 9.1-5.5 10.25-4.75 11.4-4 13.35-4L13.35-4Q15.65-4 16.65-5.03 17.65-6.05 17.9-7.85 18.15-9.65 18.15-12.05L18.15-12.05 18.15-15.05 23.5-15.05 23.5-12.05Q23.5-8.35 22.6-5.53 21.7-2.7 19.5-1.13 17.3 0.45 13.3 0.45ZM33.95 0L28.6 0 28.6-28.9 33.95-28.9 33.95-24.8Q35.55-27.45 37.15-28.35 38.75-29.25 40.35-29.25L40.35-29.25Q40.55-29.25 40.72-29.25 40.9-29.25 41.2-29.2L41.2-29.2 41.2-23.3Q40.6-23.55 39.82-23.73 39.05-23.9 38.25-23.9L38.25-23.9Q37-23.9 35.97-23.33 34.95-22.75 33.95-21.1L33.95-21.1 33.95 0ZM52.5 0.4L52.5 0.4Q49.09 0.4 47.25-0.93 45.4-2.25 44.67-4.83 43.95-7.4 43.95-11.15L43.95-11.15 43.95-17.75Q43.95-21.6 44.7-24.15 45.45-26.7 47.32-28 49.2-29.3 52.5-29.3L52.5-29.3Q56.15-29.3 57.87-27.8 59.59-26.3 60.15-23.48 60.7-20.65 60.7-16.7L60.7-16.7 60.7-14.35 49.3-14.35 49.3-8.55Q49.3-6.8 49.62-5.7 49.95-4.6 50.67-4.08 51.4-3.55 52.55-3.55L52.55-3.55Q53.75-3.55 54.37-4.13 55-4.7 55.22-5.78 55.45-6.85 55.45-8.3L55.45-8.3 55.45-10.05 60.65-10.05 60.65-8.95Q60.65-4.6 58.8-2.1 56.95 0.4 52.5 0.4ZM49.3-18.8L49.3-17.25 55.45-17.25 55.45-19.85Q55.45-21.65 55.25-22.88 55.05-24.1 54.42-24.73 53.8-25.35 52.45-25.35L52.45-25.35Q51.15-25.35 50.47-24.75 49.8-24.15 49.55-22.73 49.3-21.3 49.3-18.8L49.3-18.8ZM70.74 0.4L70.74 0.4Q69.04 0.4 67.74-0.58 66.44-1.55 65.69-3.08 64.94-4.6 64.94-6.3L64.94-6.3Q64.94-9 65.84-10.85 66.74-12.7 68.32-13.98 69.89-15.25 71.97-16.2 74.04-17.15 76.34-18.05L76.34-18.05 76.34-20.1Q76.34-21.85 76.14-23 75.94-24.15 75.32-24.73 74.69-25.3 73.44-25.3L73.44-25.3Q72.34-25.3 71.67-24.8 70.99-24.3 70.69-23.38 70.39-22.45 70.39-21.2L70.39-21.2 70.39-19.75 65.09-19.95Q65.19-24.75 67.29-27.03 69.39-29.3 73.79-29.3L73.79-29.3Q78.09-29.3 79.89-26.95 81.69-24.6 81.69-20.15L81.69-20.15 81.69-6.95Q81.69-5.6 81.77-4.35 81.84-3.1 81.97-2.02 82.09-0.95 82.19 0L82.19 0 77.29 0Q77.14-0.8 76.92-2.02 76.69-3.25 76.59-4.25L76.59-4.25Q76.09-2.55 74.67-1.07 73.24 0.4 70.74 0.4ZM72.84-4.2L72.84-4.2Q73.64-4.2 74.34-4.65 75.04-5.1 75.59-5.68 76.14-6.25 76.34-6.6L76.34-6.6 76.34-14.8Q75.09-14.1 73.99-13.4 72.89-12.7 72.07-11.93 71.24-11.15 70.77-10.18 70.29-9.2 70.29-7.95L70.29-7.95Q70.29-6.2 70.94-5.2 71.59-4.2 72.84-4.2ZM94.14 0.4L94.14 0.4Q91.89 0.4 90.52-0.45 89.14-1.3 88.52-2.85 87.89-4.4 87.89-6.5L87.89-6.5 87.89-25.35 84.84-25.35 84.84-28.9 87.89-28.9 87.89-37.35 93.24-37.35 93.24-28.9 97.89-28.9 97.89-25.35 93.24-25.35 93.24-6.85Q93.24-5.15 93.79-4.42 94.34-3.7 95.89-3.7L95.89-3.7Q96.29-3.7 96.81-3.75 97.34-3.8 97.84-3.85L97.84-3.85 97.84 0.1Q96.84 0.25 95.99 0.33 95.14 0.4 94.14 0.4ZM109.84 0.4L109.84 0.4Q106.44 0.4 104.59-0.93 102.74-2.25 102.01-4.83 101.29-7.4 101.29-11.15L101.29-11.15 101.29-17.75Q101.29-21.6 102.04-24.15 102.79-26.7 104.66-28 106.54-29.3 109.84-29.3L109.84-29.3Q113.49-29.3 115.21-27.8 116.94-26.3 117.49-23.48 118.04-20.65 118.04-16.7L118.04-16.7 118.04-14.35 106.64-14.35 106.64-8.55Q106.64-6.8 106.96-5.7 107.29-4.6 108.01-4.08 108.74-3.55 109.89-3.55L109.89-3.55Q111.09-3.55 111.71-4.13 112.34-4.7 112.56-5.78 112.79-6.85 112.79-8.3L112.79-8.3 112.79-10.05 117.99-10.05 117.99-8.95Q117.99-4.6 116.14-2.1 114.29 0.4 109.84 0.4ZM106.64-18.8L106.64-17.25 112.79-17.25 112.79-19.85Q112.79-21.65 112.59-22.88 112.39-24.1 111.76-24.73 111.14-25.35 109.79-25.35L109.79-25.35Q108.49-25.35 107.81-24.75 107.14-24.15 106.89-22.73 106.64-21.3 106.64-18.8L106.64-18.8ZM146.38 0L140.98 0 140.98-14.3 132.23-40.5 137.48-40.5 143.68-20.95 149.78-40.5 155.08-40.5 146.38-14.3 146.38 0ZM165.33 0.4L165.33 0.4Q162.13 0.4 160.28-0.9 158.43-2.2 157.66-4.6 156.88-7 156.88-10.25L156.88-10.25 156.88-18.65Q156.88-21.9 157.66-24.3 158.43-26.7 160.28-28 162.13-29.3 165.33-29.3L165.33-29.3Q168.53-29.3 170.36-28 172.18-26.7 172.96-24.3 173.73-21.9 173.73-18.65L173.73-18.65 173.73-10.25Q173.73-7 172.96-4.6 172.18-2.2 170.36-0.9 168.53 0.4 165.33 0.4ZM165.33-3.55L165.33-3.55Q166.88-3.55 167.5-4.45 168.13-5.35 168.25-6.83 168.38-8.3 168.38-9.9L168.38-9.9 168.38-18.95Q168.38-20.6 168.25-22.05 168.13-23.5 167.5-24.43 166.88-25.35 165.33-25.35L165.33-25.35Q163.78-25.35 163.13-24.43 162.48-23.5 162.36-22.05 162.23-20.6 162.23-18.95L162.23-18.95 162.23-9.9Q162.23-8.3 162.36-6.83 162.48-5.35 163.13-4.45 163.78-3.55 165.33-3.55ZM182.78 0.4L182.78 0.4Q181.08 0.4 180.13-0.5 179.18-1.4 178.8-2.75 178.43-4.1 178.43-5.5L178.43-5.5 178.43-28.9 183.78-28.9 183.78-7.1Q183.78-5.55 184.23-4.67 184.68-3.8 186.08-3.8L186.08-3.8Q186.98-3.8 187.95-4.33 188.93-4.85 189.83-5.6L189.83-5.6 189.83-28.9 195.18-28.9 195.18 0 189.83 0 189.83-2.85Q188.43-1.5 186.65-0.55 184.88 0.4 182.78 0.4ZM206.13 0L200.78 0 200.78-28.9 206.13-28.9 206.13-24.8Q207.73-27.45 209.33-28.35 210.93-29.25 212.53-29.25L212.53-29.25Q212.73-29.25 212.9-29.25 213.08-29.25 213.38-29.2L213.38-29.2 213.38-23.3Q212.78-23.55 212-23.73 211.23-23.9 210.43-23.9L210.43-23.9Q209.18-23.9 208.15-23.33 207.13-22.75 206.13-21.1L206.13-21.1 206.13 0ZM234.22 0L228.57 0 228.57-40.5 244.22-40.5 244.22-36.45 234.22-36.45 234.22-22.95 241.97-22.95 241.97-18.95 234.22-18.95 234.22 0ZM253.17 0L247.82 0 247.82-28.9 253.17-28.9 253.17-24.8Q254.77-27.45 256.37-28.35 257.97-29.25 259.57-29.25L259.57-29.25Q259.77-29.25 259.94-29.25 260.12-29.25 260.42-29.2L260.42-29.2 260.42-23.3Q259.82-23.55 259.04-23.73 258.27-23.9 257.47-23.9L257.47-23.9Q256.22-23.9 255.19-23.33 254.17-22.75 253.17-21.1L253.17-21.1 253.17 0ZM271.72 0.4L271.72 0.4Q268.32 0.4 266.47-0.93 264.62-2.25 263.89-4.83 263.17-7.4 263.17-11.15L263.17-11.15 263.17-17.75Q263.17-21.6 263.92-24.15 264.67-26.7 266.54-28 268.42-29.3 271.72-29.3L271.72-29.3Q275.37-29.3 277.09-27.8 278.82-26.3 279.37-23.48 279.92-20.65 279.92-16.7L279.92-16.7 279.92-14.35 268.52-14.35 268.52-8.55Q268.52-6.8 268.84-5.7 269.17-4.6 269.89-4.08 270.62-3.55 271.77-3.55L271.77-3.55Q272.97-3.55 273.59-4.13 274.22-4.7 274.44-5.78 274.67-6.85 274.67-8.3L274.67-8.3 274.67-10.05 279.87-10.05 279.87-8.95Q279.87-4.6 278.02-2.1 276.17 0.4 271.72 0.4ZM268.52-18.8L268.52-17.25 274.67-17.25 274.67-19.85Q274.67-21.65 274.47-22.88 274.27-24.1 273.64-24.73 273.02-25.35 271.67-25.35L271.67-25.35Q270.37-25.35 269.69-24.75 269.02-24.15 268.77-22.73 268.52-21.3 268.52-18.8L268.52-18.8ZM292.76 0.4L292.76 0.4Q289.36 0.4 287.51-0.93 285.66-2.25 284.94-4.83 284.21-7.4 284.21-11.15L284.21-11.15 284.21-17.75Q284.21-21.6 284.96-24.15 285.71-26.7 287.59-28 289.46-29.3 292.76-29.3L292.76-29.3Q296.41-29.3 298.14-27.8 299.86-26.3 300.41-23.48 300.96-20.65 300.96-16.7L300.96-16.7 300.96-14.35 289.56-14.35 289.56-8.55Q289.56-6.8 289.89-5.7 290.21-4.6 290.94-4.08 291.66-3.55 292.81-3.55L292.81-3.55Q294.01-3.55 294.64-4.13 295.26-4.7 295.49-5.78 295.71-6.85 295.71-8.3L295.71-8.3 295.71-10.05 300.91-10.05 300.91-8.95Q300.91-4.6 299.06-2.1 297.21 0.4 292.76 0.4ZM289.56-18.8L289.56-17.25 295.71-17.25 295.71-19.85Q295.71-21.65 295.51-22.88 295.31-24.1 294.69-24.73 294.06-25.35 292.71-25.35L292.71-25.35Q291.41-25.35 290.74-24.75 290.06-24.15 289.81-22.73 289.56-21.3 289.56-18.8L289.56-18.8ZM327.86 0.45L327.86 0.45Q323.56 0.45 321.18-1.35 318.81-3.15 317.88-6.2 316.96-9.25 316.96-13L316.96-13 316.96-27.3Q316.96-31.4 317.88-34.45 318.81-37.5 321.18-39.18 323.56-40.85 327.86-40.85L327.86-40.85Q331.66-40.85 333.88-39.45 336.11-38.05 337.08-35.45 338.06-32.85 338.06-29.2L338.06-29.2 338.06-26 332.71-26 332.71-28.85Q332.71-31.1 332.48-32.83 332.26-34.55 331.26-35.5 330.26-36.45 327.91-36.45L327.91-36.45Q325.51-36.45 324.41-35.43 323.31-34.4 322.98-32.52 322.66-30.65 322.66-28.15L322.66-28.15 322.66-12.1Q322.66-9.05 323.16-7.28 323.66-5.5 324.81-4.75 325.96-4 327.91-4L327.91-4Q330.21-4 331.21-5.03 332.21-6.05 332.46-7.85 332.71-9.65 332.71-12.05L332.71-12.05 332.71-15.05 338.06-15.05 338.06-12.05Q338.06-8.35 337.16-5.53 336.26-2.7 334.06-1.13 331.86 0.45 327.86 0.45ZM355.46 0L350.51 0 341.46-40.5 346.76-40.5 353.16-10.65 359.26-40.5 364.41-40.5 355.46 0Z" opacity="1" transform="matrix(1,0,0,1,0,0)" fill="#b19dd0" class="undefined-text-1" data-fill-palette-color="secondary" id="text-1"></path></svg></g></svg></g></svg></g></svg></g><g></g></svg></g></svg><rect width="395.5199999999999" height="156.96279962151854" fill="none" stroke="none" visibility="hidden"></rect></g></svg></g></svg>